<svg width="181" height="188" viewBox="0 0 181 188" fill="none" xmlns="http://www.w3.org/2000/svg">
<path d="M70.6047 86.6C70.138 86.6 69.6047 86.5333 69.0047 86.4C68.4714 86.2667 67.938 86.0667 67.4047 85.8C65.0714 84.6 63.2047 82.5333 61.8047 79.6C60.4714 76.6667 59.4714 73.2 58.8047 69.2C58.2047 65.2 57.838 61.1 57.7047 56.9C52.3714 55.1667 47.0047 53.9333 41.6047 53.2L39.6047 58.5C38.2047 62.3 36.2714 65.7667 33.8047 68.9C31.338 72.0333 28.638 74.5 25.7047 76.3C22.7714 78.1667 19.8714 79.1 17.0047 79.1C14.2047 79.1 11.5047 78.0333 8.90469 75.9C6.37135 73.8333 4.20469 70.4333 2.40469 65.7C1.87135 64.2333 1.47135 62.7333 1.20469 61.2C0.938021 59.6 0.804687 58 0.804687 56.4C0.804687 53.8667 1.07135 51.3667 1.60469 48.9C2.20469 46.3667 2.93802 44.0333 3.80469 41.9C4.53802 40.3 5.53802 38.5667 6.80469 36.7C8.07135 34.8333 9.27135 33.3333 10.4047 32.2C10.738 31.8667 11.1714 31.5 11.7047 31.1C12.238 30.7 12.6047 30.5 12.8047 30.5C12.8714 30.5 12.9047 30.5333 12.9047 30.6C12.9047 30.9333 12.4047 31.6333 11.4047 32.7C8.73802 35.5 6.80469 38.8333 5.60469 42.7C4.40469 46.5667 3.80469 50.4667 3.80469 54.4C3.80469 58.9333 4.53802 63.1333 6.00469 67C7.47135 70.8667 9.17135 73.6333 11.1047 75.3C13.038 76.9667 15.038 77.8 17.1047 77.8C19.1047 77.8 21.1047 77.1333 23.1047 75.8C25.1714 74.5333 27.0714 72.9333 28.8047 71C30.338 69.2667 31.9047 66.8 33.5047 63.6C35.1047 60.4 36.638 56.8 38.1047 52.8C37.3047 52.7333 36.538 52.7 35.8047 52.7C35.0714 52.6333 34.338 52.6 33.6047 52.6C31.0047 52.6 28.838 52.8 27.1047 53.2H26.8047C26.138 53.2 25.8047 52.7667 25.8047 51.9C25.8047 51.3667 25.938 50.8333 26.2047 50.3C26.538 49.7667 26.9714 49.4667 27.5047 49.4C28.5047 49.2 29.7047 49.1 31.1047 49.1C32.238 49.1 33.4714 49.1667 34.8047 49.3C36.2047 49.4333 37.638 49.6333 39.1047 49.9C39.5047 48.7667 39.8714 47.6333 40.2047 46.5C40.6047 45.3 40.9714 44.1 41.3047 42.9C42.638 38.1667 43.7047 33.4333 44.5047 28.7C45.3714 23.9667 45.8047 19.6333 45.8047 15.7C45.8047 12.7667 45.538 10.1333 45.0047 7.8C44.4714 5.46667 43.6047 3.63333 42.4047 2.3C41.8047 1.63333 41.1714 1.3 40.5047 1.3C39.7714 1.3 38.9714 1.63333 38.1047 2.3C36.7047 3.43333 35.438 5.3 34.3047 7.89999C33.238 10.4333 32.4047 13.2667 31.8047 16.4C31.2047 19.4667 30.9047 22.3333 30.9047 25C30.9047 26.5333 31.038 27.9333 31.3047 29.2C31.5714 30.4667 31.938 31.4667 32.4047 32.2C32.738 32.6667 33.038 33 33.3047 33.2C33.638 33.3333 33.938 33.4 34.2047 33.4C34.4714 33.4 34.7047 33.3667 34.9047 33.3C35.1714 33.2333 35.3714 33.2 35.5047 33.2C35.838 33.2 36.0047 33.2667 36.0047 33.4C36.0047 33.5333 35.738 33.7333 35.2047 34C34.6714 34.2 34.0714 34.3 33.4047 34.3C33.138 34.3 32.8714 34.3 32.6047 34.3C32.4047 34.2333 32.2047 34.1667 32.0047 34.1C30.6047 33.5 29.5714 32.3667 28.9047 30.7C28.3047 29.0333 28.0047 27.1 28.0047 24.9C28.0047 22.3667 28.338 19.7 29.0047 16.9C29.738 14.1 30.7047 11.4667 31.9047 9C33.1047 6.53333 34.4714 4.53333 36.0047 3C37.538 1.4 39.138 0.599999 40.8047 0.599999C42.0714 0.599999 43.2714 1.06667 44.4047 2C46.138 3.4 47.338 5.4 48.0047 8C48.738 10.6 49.1047 13.5333 49.1047 16.8C49.1047 20.3333 48.7714 24.1333 48.1047 28.2C47.438 32.2 46.6047 36.1333 45.6047 40C44.6047 43.8667 43.5714 47.3667 42.5047 50.5C45.038 50.9667 47.6047 51.5667 50.2047 52.3C52.8047 53.0333 55.2714 53.8 57.6047 54.6C57.6047 52.3333 57.7714 49.5 58.1047 46.1C58.438 42.7 58.9714 39.0333 59.7047 35.1C60.5047 31.1667 61.4714 27.2667 62.6047 23.4C63.8047 19.5333 65.1714 16 66.7047 12.8C68.3047 9.6 70.1047 7.03333 72.1047 5.1C74.1047 3.16666 76.338 2.2 78.8047 2.2C81.0047 2.2 83.3714 3.13333 85.9047 5C88.438 6.86666 91.138 9.93333 94.0047 14.2C94.538 14.9333 94.8047 15.5667 94.8047 16.1C94.8047 16.4333 94.6047 16.5 94.2047 16.3C93.8047 16.1 93.2047 15.4333 92.4047 14.3C90.0047 10.6333 87.738 8.03333 85.6047 6.49999C83.538 4.9 81.6047 4.1 79.8047 4.1C77.8047 4.1 75.938 4.86666 74.2047 6.4C72.538 7.93333 71.038 10 69.7047 12.6C68.3714 15.1333 67.1714 17.9333 66.1047 21C65.1047 24.0667 64.238 27.1667 63.5047 30.3C62.838 33.3667 62.3047 36.2333 61.9047 38.9C61.5047 41.5 61.2714 43.6 61.2047 45.2C61.138 46.2667 61.0714 47.3333 61.0047 48.4C61.0047 49.4 61.0047 50.4 61.0047 51.4C61.0047 52.1333 61.0047 52.8667 61.0047 53.6C61.0714 54.3333 61.1047 55.0667 61.1047 55.8C65.238 57.4 68.538 59.3667 71.0047 61.7C73.538 64.0333 75.338 66.4667 76.4047 69C77.538 71.5333 78.1047 73.9667 78.1047 76.3C78.1047 79.1667 77.3714 81.6 75.9047 83.6C74.5047 85.6 72.738 86.6 70.6047 86.6ZM70.8047 85.6C71.8047 85.6 72.7047 85.1 73.5047 84.1C75.438 81.5667 76.4047 78.9333 76.4047 76.2C76.4047 73.5333 75.638 71.0333 74.1047 68.7C72.5714 66.3 70.638 64.2 68.3047 62.4C65.9714 60.5333 63.6047 59.1333 61.2047 58.2C61.4047 62.2667 61.8047 66.1333 62.4047 69.8C63.0047 73.4 63.8714 76.5 65.0047 79.1C66.138 81.7667 67.538 83.7333 69.2047 85C69.8047 85.4 70.338 85.6 70.8047 85.6ZM85.0703 71.3C82.6703 71.3 80.5703 69.9 78.7703 67.1C77.037 64.2333 76.1703 59.7333 76.1703 53.6C76.1703 49.6 76.6703 46.4 77.6703 44C78.6703 41.5333 79.9036 39.7333 81.3703 38.6C82.837 37.4667 84.237 36.9 85.5703 36.9C86.9036 36.9 88.037 37.3667 88.9703 38.3C89.9036 39.1667 90.3703 40.4333 90.3703 42.1C90.3703 43.7 89.9036 45.4 88.9703 47.2C88.037 48.9333 86.9036 50.5333 85.5703 52C84.3036 53.4 83.037 54.3333 81.7703 54.8C81.5036 54.9333 81.1703 55 80.7703 55C80.5036 55 80.3703 54.9 80.3703 54.7C80.3703 54.1667 80.9036 53.5667 81.9703 52.9C83.3036 51.9667 84.5703 50.5667 85.7703 48.7C86.9703 46.7667 87.5703 45.0667 87.5703 43.6C87.5703 42.7333 87.3703 42.0667 86.9703 41.6C86.5703 41.0667 86.1036 40.8 85.5703 40.8C84.5703 40.8 83.4703 41.6 82.2703 43.2C81.137 44.7333 80.3036 47.4 79.7703 51.2C79.637 52.2667 79.5036 53.3 79.3703 54.3C79.3036 55.2333 79.2703 56.1667 79.2703 57.1C79.2703 60.8333 79.837 63.7667 80.9703 65.9C82.1036 67.9667 83.6036 69 85.4703 69C87.0703 69 88.8703 68.0667 90.8703 66.2C92.8703 64.2667 94.837 61.2667 96.7703 57.2C97.237 56.1333 97.7703 55.6 98.3703 55.6C98.7703 55.6 98.9703 55.8667 98.9703 56.4C98.9703 56.8667 98.837 57.3667 98.5703 57.9C96.837 62.1667 94.737 65.4667 92.2703 67.8C89.8036 70.1333 87.4036 71.3 85.0703 71.3ZM99.4945 69.2C98.2945 69.2 97.4279 68.7 96.8945 67.7C96.3612 66.6333 96.0945 65.4 96.0945 64C96.0945 62.2 96.3945 60.1 96.9945 57.7C97.6612 55.3 98.5279 52.8333 99.5945 50.3C100.661 47.7 101.861 45.3333 103.195 43.2C104.595 41 106.061 39.2333 107.595 37.9C109.128 36.5 110.628 35.8 112.095 35.8C113.428 35.8 114.561 36.4 115.495 37.6C116.495 38.7333 116.995 40.0333 116.995 41.5C116.995 42.3667 116.861 43.1 116.595 43.7C116.328 44.2333 116.028 44.5 115.695 44.5C115.428 44.5 115.195 44.3 114.995 43.9C114.328 42.3667 113.595 41.2667 112.795 40.6C112.061 39.9333 111.295 39.6 110.495 39.6C109.161 39.6 107.828 40.3667 106.495 41.9C105.228 43.3667 104.195 45.0667 103.395 47C102.728 48.4667 102.095 50.2333 101.495 52.3C100.961 54.3 100.495 56.3 100.095 58.3C99.7612 60.2333 99.5945 61.8333 99.5945 63.1C99.5945 65.3667 100.128 66.5 101.195 66.5C102.528 66.5 104.228 65.0333 106.295 62.1C107.828 59.9667 109.195 57.5 110.395 54.7C111.661 51.9 112.728 49.4667 113.595 47.4C113.928 46.7333 114.295 46.3 114.695 46.1C115.095 45.9 115.461 45.8 115.795 45.8C116.595 45.8 117.095 46.1333 117.295 46.8C117.561 47.4667 117.695 48.0333 117.695 48.5C117.695 50.2333 117.528 51.8 117.195 53.2C116.861 54.5333 116.695 56.1667 116.695 58.1C116.695 59.5 116.795 60.8 116.995 62C117.261 63.1333 117.695 63.7 118.295 63.7C119.028 63.7 119.961 62.7667 121.095 60.9C121.361 60.3667 121.761 60.1 122.295 60.1C122.895 60.1 123.195 60.4 123.195 61C123.195 61.8667 122.595 62.8 121.395 63.8C120.195 64.7333 118.995 65.2 117.795 65.2C116.195 65.2 115.061 64.5333 114.395 63.2C113.261 61 112.695 59.0333 112.695 57.3C112.695 55.5 112.661 54.2667 112.595 53.6C112.261 54.4 111.628 55.6667 110.695 57.4C109.761 59.0667 108.661 60.8333 107.395 62.7C106.128 64.5 104.795 66.0333 103.395 67.3C101.995 68.5667 100.695 69.2 99.4945 69.2ZM137.564 85.9C136.697 85.9 135.864 85.5667 135.064 84.9C134.331 84.2333 133.697 83.5667 133.164 82.9C131.031 80.4333 129.231 77.1667 127.764 73.1C126.364 69.0333 125.297 64.5667 124.564 59.7C123.831 54.7667 123.464 49.7667 123.464 44.7C123.464 39.9667 123.764 35.3667 124.364 30.9C125.031 26.4333 126.031 22.3667 127.364 18.7C128.697 15.0333 130.364 12.1 132.364 9.9C134.964 6.96666 137.464 5.5 139.864 5.5C141.331 5.5 142.497 6.16666 143.364 7.5C144.297 8.76667 144.764 10.8 144.764 13.6C144.764 16.2667 144.231 19.6667 143.164 23.8C142.164 27.8667 140.431 32.7333 137.964 38.4C137.097 40.2667 136.164 42.1333 135.164 44C134.231 45.8667 133.231 47.8333 132.164 49.9C131.764 50.7 131.431 51.1 131.164 51.1C131.031 51.1 130.964 50.9667 130.964 50.7C130.964 50.1667 131.197 49.4667 131.664 48.6C137.731 37.2 140.764 25.8667 140.764 14.6C140.764 10.1333 139.831 7.89999 137.964 7.89999C136.631 7.89999 135.064 9.2 133.264 11.8C130.797 15.4667 129.097 19.8333 128.164 24.9C127.231 29.9 126.764 34.9667 126.764 40.1C126.764 43.9667 126.931 47.7333 127.264 51.4C127.597 55 127.997 58.2667 128.464 61.2C128.664 62.4667 128.964 64.1667 129.364 66.3C129.764 68.4333 130.297 70.6667 130.964 73C131.631 75.4 132.364 77.5667 133.164 79.5C134.031 81.5 134.964 82.9333 135.964 83.8C136.231 84 136.497 84.2 136.764 84.4C137.097 84.6667 137.464 84.8333 137.864 84.9C138.464 84.9 138.764 85.0667 138.764 85.4C138.764 85.7333 138.364 85.9 137.564 85.9ZM147.761 86C147.094 86 146.394 85.5667 145.661 84.7C144.994 83.9 144.361 82.7667 143.761 81.3C142.761 78.9 142.061 76.3667 141.661 73.7C141.261 71.1 141.061 68.4667 141.061 65.8C141.061 62.8667 141.261 60 141.661 57.2C142.061 54.4 142.494 51.8667 142.961 49.6C143.294 48 143.694 46.3 144.161 44.5C144.628 42.7 145.061 41.2667 145.461 40.2C145.061 40.2667 144.428 40.5 143.561 40.9C142.694 41.3 141.794 41.7 140.861 42.1C139.994 42.5 139.228 42.7 138.561 42.7C137.561 42.7 137.061 42.1333 137.061 41C137.061 40.4 137.261 39.8667 137.661 39.4C138.128 38.9333 138.694 38.5667 139.361 38.3C140.694 37.7 142.161 37.2667 143.761 37C145.361 36.6667 146.428 36.3333 146.961 36L149.561 29.4C149.828 28.7333 150.294 27.6667 150.961 26.2C151.694 24.6667 152.528 23.0333 153.461 21.3C154.461 19.5667 155.428 18 156.361 16.6C157.094 15.5333 157.794 14.7 158.461 14.1C159.128 13.4333 159.861 13.1 160.661 13.1C161.861 13.1 162.461 13.5667 162.461 14.5C162.461 15.0333 162.228 15.8333 161.761 16.9C161.361 17.9667 160.594 19.3667 159.461 21.1C158.194 23.1 156.894 25.1 155.561 27.1C154.294 29.0333 153.194 31.0667 152.261 33.2C152.194 33.4667 152.028 33.9 151.761 34.5C151.561 35.0333 151.394 35.3667 151.261 35.5L153.261 35.2C153.794 35.1333 154.394 35.1 155.061 35.1C155.728 35.0333 156.461 35 157.261 35C158.394 35 159.461 35.0667 160.461 35.2C161.528 35.2667 162.394 35.4333 163.061 35.7C163.394 35.8333 163.694 36 163.961 36.2C164.294 36.3333 164.461 36.4667 164.461 36.6C164.461 36.8667 163.594 37 161.861 37C160.861 37 159.428 37.1667 157.561 37.5C155.761 37.8333 153.694 38.3667 151.361 39.1C150.228 39.4333 149.461 39.9 149.061 40.5C148.661 41.1 148.128 42.5333 147.461 44.8C146.461 48.4 145.661 51.8667 145.061 55.2C144.461 58.4667 143.994 61.8 143.661 65.2C143.594 65.8667 143.528 66.5667 143.461 67.3C143.461 68.0333 143.461 68.8333 143.461 69.7C143.461 71.9667 143.661 74.3333 144.061 76.8C144.528 79.2667 145.194 81.4 146.061 83.2C146.261 83.6 146.461 83.9667 146.661 84.3C146.928 84.6333 147.228 84.8667 147.561 85C148.028 85.2 148.261 85.4333 148.261 85.7C148.261 85.9 148.094 86 147.761 86ZM167.158 87.5C165.624 87.5 164.458 86.8667 163.658 85.6C162.924 84.3333 162.558 82.8667 162.558 81.2C162.558 79.2 162.924 76.9 163.658 74.3C164.458 71.7667 165.424 69.1667 166.558 66.5C167.691 63.7667 168.858 61.1333 170.058 58.6C171.324 56.0667 172.424 53.8 173.358 51.8C174.358 49.8 175.024 48.2667 175.358 47.2C175.758 46 175.958 45.1 175.958 44.5C175.958 43.8333 175.724 43.5 175.258 43.5C174.724 43.5 173.924 43.9333 172.858 44.8C171.858 45.6 170.858 46.5 169.858 47.5C168.924 48.5 168.258 49.2333 167.858 49.7C165.724 52.1 163.791 54.7667 162.058 57.7C160.391 60.6333 159.358 63.1333 158.958 65.2C158.891 65.5333 158.758 66.1333 158.558 67C158.424 67.8667 158.124 68.2667 157.658 68.2C156.991 68.0667 156.524 67.6667 156.258 67C156.058 66.2667 155.924 65.6 155.858 65C155.858 64.6667 155.824 64.3333 155.758 64C155.758 63.6 155.758 63.2 155.758 62.8C155.758 59.5333 156.124 55.8333 156.858 51.7C157.591 47.5667 158.524 43.3333 159.658 39C160.858 34.6667 162.124 30.6333 163.458 26.9C164.791 23.1667 166.058 20.0667 167.258 17.6C167.858 16.4 168.524 15.2667 169.258 14.2C169.991 13.0667 170.724 12.5 171.458 12.5C171.924 12.5 172.324 12.7333 172.658 13.2C173.058 13.6667 173.258 14.0667 173.258 14.4C173.258 14.6667 172.791 15.7333 171.858 17.6C170.991 19.4 169.858 21.8 168.458 24.8C167.058 27.7333 165.624 31.1 164.158 34.9C162.758 38.7 161.491 42.7667 160.358 47.1C159.224 51.4333 158.458 55.8333 158.058 60.3C158.058 60.3667 158.024 60.7 157.958 61.3C157.891 61.9 157.824 62.5 157.758 63.1C157.758 63.7 157.758 64 157.758 64V63.9H157.858C157.991 63.1 158.224 62.3333 158.558 61.6C158.958 60.8667 159.358 60.1667 159.758 59.5C161.758 55.5 164.324 51.6667 167.458 48C168.991 46.2667 170.591 44.7667 172.258 43.5C173.924 42.1667 175.658 41.5 177.458 41.5C178.191 41.5 178.824 41.7 179.358 42.1C179.891 42.5 180.158 43.2667 180.158 44.4C180.158 45.8667 179.658 47.6 178.658 49.6C177.724 51.5333 176.558 53.5667 175.158 55.7C173.824 57.7667 172.591 59.7333 171.458 61.6C169.924 64.2 168.524 66.9667 167.258 69.9C166.058 72.7667 165.458 75.7667 165.458 78.9C165.458 79.8333 165.524 80.8333 165.658 81.9C165.858 82.9667 166.158 83.8667 166.558 84.6C167.024 85.4 167.658 85.8 168.458 85.8C168.991 85.8 169.491 85.6333 169.958 85.3C170.491 85.0333 170.924 84.7667 171.258 84.5C171.858 83.9 172.258 83.6 172.458 83.6C172.658 83.6 172.758 83.7 172.758 83.9C172.758 84.3 172.591 84.6667 172.258 85C171.924 85.4 171.591 85.7 171.258 85.9C170.791 86.3 170.158 86.6667 169.358 87C168.624 87.3333 167.891 87.5 167.158 87.5ZM91.8138 187.28C90.3204 187.28 89.0671 186.64 88.0538 185.36C87.0404 184.133 86.2938 182.613 85.8138 180.8C85.3338 178.987 85.0938 177.253 85.0938 175.6C85.0938 172.4 85.5471 168.853 86.4538 164.96C87.3604 161.067 88.4804 157.093 89.8138 153.04C91.2004 148.987 92.6138 145.093 94.0538 141.36C95.5471 137.573 96.8804 134.16 98.0538 131.12C99.2271 128.08 100.054 125.653 100.534 123.84C100.64 123.36 100.72 122.933 100.774 122.56C100.827 122.133 100.854 121.787 100.854 121.52C100.854 120.56 100.56 120.08 99.9738 120.08C99.1204 120.08 97.8404 120.96 96.1338 122.72C94.4271 124.427 92.5071 126.773 90.3738 129.76C88.2938 132.693 86.2138 136.027 84.1338 139.76C82.0538 143.493 80.1871 147.36 78.5338 151.36C76.9338 155.307 75.8138 159.173 75.1738 162.96C74.9604 164.347 74.5871 165.387 74.0538 166.08C73.5738 166.773 73.0938 167.12 72.6138 167.12C72.1871 167.12 71.8138 166.853 71.4938 166.32C71.1738 165.787 71.0138 165.013 71.0138 164C70.9604 159.733 70.8271 155.467 70.6138 151.2C70.4004 146.88 69.9204 142.747 69.1738 138.8C68.0538 132.72 66.7738 128.4 65.3338 125.84C63.9471 123.28 62.5071 122 61.0138 122C59.6271 122 58.2671 122.853 56.9338 124.56C55.6538 126.213 54.4271 128.427 53.2538 131.2C52.0804 133.92 51.0404 136.907 50.1338 140.16C49.2271 143.413 48.5071 146.64 47.9738 149.84C47.4938 153.04 47.2538 155.893 47.2538 158.4C47.2538 158.987 47.2538 159.573 47.2538 160.16C47.3071 160.693 47.3604 161.2 47.4138 161.68C47.4671 161.947 47.4938 162.24 47.4938 162.56C47.4938 162.827 47.4938 163.093 47.4938 163.36C47.4938 164.587 47.3338 165.68 47.0138 166.64C46.6938 167.6 46.3204 168.08 45.8938 168.08C45.4671 168.08 45.0671 167.6 44.6938 166.64C44.2671 165.68 43.9204 164.48 43.6538 163.04C43.3871 161.547 43.1738 160.293 43.0138 159.28C42.9071 158.533 42.6671 157.413 42.2938 155.92C41.9738 154.427 41.5738 152.8 41.0938 151.04C40.6138 149.227 40.0538 147.467 39.4138 145.76C38.8271 144 38.1871 142.507 37.4938 141.28C36.8004 140 36.0804 139.173 35.3338 138.8C35.2271 138.693 35.1738 138.587 35.1738 138.48C35.1738 138.213 35.4404 138.053 35.9738 138C36.5604 137.947 36.9604 137.973 37.1738 138.08C38.2938 138.4 39.2804 139.2 40.1338 140.48C41.0404 141.707 41.8138 143.173 42.4538 144.88C43.1471 146.533 43.7338 148.187 44.2138 149.84C44.6938 151.44 45.0938 152.773 45.4138 153.84C46.0004 150.16 46.6938 146.533 47.4938 142.96C48.3471 139.333 49.4671 135.787 50.8538 132.32C52.8271 127.52 54.7738 124.107 56.6938 122.08C58.6138 120 60.4271 118.96 62.1338 118.96C63.9471 118.96 65.5738 119.893 67.0138 121.76C68.5071 123.573 69.7604 126 70.7738 129.04C71.8404 132.027 72.5604 135.28 72.9338 138.8C73.1471 140.613 73.2804 142.587 73.3338 144.72C73.3871 146.8 73.4138 148.853 73.4138 150.88V157.12C73.4138 158.027 73.4138 158.853 73.4138 159.6C73.4138 160.347 73.4404 160.96 73.4938 161.44C73.8671 160.16 74.4804 158.373 75.3338 156.08C76.1871 153.733 77.2271 151.12 78.4538 148.24C79.6804 145.307 81.0671 142.293 82.6138 139.2C84.1604 136.107 85.8138 133.147 87.5738 130.32C89.3871 127.44 91.2538 124.933 93.1738 122.8C95.1471 120.613 97.1204 119.013 99.0938 118C100.267 117.413 101.36 117.12 102.374 117.12C103.547 117.12 104.534 117.467 105.334 118.16C106.134 118.8 106.534 119.76 106.534 121.04C106.534 122.96 106.134 124.88 105.334 126.8C104.534 128.667 103.574 130.507 102.454 132.32C101.334 134.133 100.294 135.893 99.3338 137.6C97.6271 140.693 95.9204 144.267 94.2138 148.32C92.5071 152.373 91.0671 156.56 89.8938 160.88C88.7738 165.2 88.2138 169.36 88.2138 173.36C88.2138 174.64 88.2671 175.893 88.3738 177.12C88.5338 178.347 88.7738 179.52 89.0938 180.64C89.5738 182.347 90.1604 183.52 90.8538 184.16C91.6004 184.853 92.3471 185.2 93.0938 185.2C93.8938 185.2 94.6404 184.96 95.3338 184.48C96.0271 184.053 96.5871 183.573 97.0138 183.04C97.4404 182.56 97.6271 182.267 97.5738 182.16C98.0538 182 98.2404 182.133 98.1338 182.56C98.0271 183.04 97.8138 183.52 97.4938 184C97.1738 184.533 96.9604 184.853 96.8538 184.96C94.9871 186.507 93.3071 187.28 91.8138 187.28ZM121.549 177.28C118.189 177.28 115.042 176.587 112.109 175.2C109.175 173.813 106.802 171.573 104.989 168.48C103.229 165.387 102.349 161.307 102.349 156.24C102.349 155.12 102.375 153.973 102.429 152.8C102.535 151.573 102.695 150.32 102.909 149.04C102.535 148.987 102.162 148.987 101.789 149.04C101.415 149.04 101.095 149.04 100.829 149.04C100.349 149.04 99.9754 148.933 99.7088 148.72C99.4421 148.507 99.2821 148.053 99.2287 147.36C99.2287 146.613 99.3887 145.92 99.7088 145.28C100.082 144.64 100.455 144.533 100.829 144.96C101.415 145.44 102.482 145.733 104.029 145.84C105.095 142.107 106.695 138.667 108.829 135.52C111.015 132.373 113.495 129.547 116.269 127.04C119.095 124.48 122.002 122.32 124.989 120.56C128.029 118.747 130.935 117.387 133.709 116.48C136.482 115.52 138.935 115.04 141.069 115.04C142.882 115.04 144.322 115.413 145.389 116.16C146.509 116.907 147.069 118.08 147.069 119.68C147.069 120.373 146.962 121.067 146.749 121.76C146.322 123.573 145.629 125.013 144.669 126.08C143.762 127.147 143.095 127.68 142.669 127.68C142.402 127.68 142.269 127.547 142.269 127.28C142.269 127.013 142.482 126.453 142.909 125.6C143.709 124.16 144.109 122.907 144.109 121.84C144.109 120.507 143.575 119.52 142.509 118.88C141.442 118.187 140.029 117.84 138.269 117.84C136.029 117.84 133.442 118.4 130.509 119.52C127.575 120.64 124.589 122.347 121.549 124.64C118.509 126.88 115.709 129.76 113.149 133.28C110.642 136.747 108.695 140.88 107.309 145.68C108.322 145.573 109.362 145.467 110.429 145.36C111.495 145.2 112.455 145.013 113.309 144.8C120.349 143.253 125.655 142.16 129.229 141.52C132.855 140.827 135.122 140.48 136.029 140.48C136.829 140.48 136.775 140.667 135.869 141.04C134.962 141.413 133.415 141.947 131.229 142.64C129.095 143.28 126.482 144 123.389 144.8C120.295 145.547 116.935 146.32 113.309 147.12C112.402 147.333 111.335 147.6 110.109 147.92C108.935 148.24 107.735 148.533 106.509 148.8C106.189 151.093 106.029 153.253 106.029 155.28C106.029 160.08 106.829 163.973 108.429 166.96C110.029 169.893 112.135 172.027 114.749 173.36C117.362 174.747 120.189 175.44 123.229 175.44C126.322 175.44 129.389 174.827 132.429 173.6C135.522 172.373 138.322 170.667 140.829 168.48C143.335 166.24 145.229 163.653 146.509 160.72C146.989 159.707 147.415 159.2 147.789 159.2C148.055 159.2 148.189 159.413 148.189 159.84C148.189 160.107 148.109 160.48 147.949 160.96C147.149 163.307 145.842 165.493 144.029 167.52C142.215 169.493 140.082 171.2 137.629 172.64C135.175 174.133 132.562 175.28 129.789 176.08C127.015 176.88 124.269 177.28 121.549 177.28Z" fill="white"/>
</svg>
